<?xml version="1.0" encoding="UTF-8"?>
<svg xmlns="http://www.w3.org/2000/svg" xmlns:xlink="http://www.w3.org/1999/xlink" width="300px" height="300px" viewBox="0 0 300 300" version="1.1">
<defs>
<filter id="alpha" filterUnits="objectBoundingBox" x="0%" y="0%" width="100%" height="100%">
  <feColorMatrix type="matrix" in="SourceGraphic" values="0 0 0 0 1 0 0 0 0 1 0 0 0 0 1 0 0 0 1 0"/>
</filter>
<mask id="mask0">
  <g filter="url(#alpha)">
<rect x="0" y="0" width="300" height="300" style="fill:rgb(0%,0%,0%);fill-opacity:0.501961;stroke:none;"/>
  </g>
</mask>
<linearGradient id="linear0" gradientUnits="userSpaceOnUse" x1="-16.3" y1="16.071" x2="1354.901" y2="16.071" gradientTransform="matrix(1,0,0,-1,16.8,702.696)">
<stop offset="0.117" style="stop-color:rgb(100%,100%,100%);stop-opacity:0;"/>
<stop offset="0.252" style="stop-color:rgb(75.294118%,81.960784%,82.745098%);stop-opacity:0.152941;"/>
<stop offset="0.387" style="stop-color:rgb(56.862745%,70.196078%,71.764706%);stop-opacity:0.305882;"/>
<stop offset="0.52" style="stop-color:rgb(42.745098%,62.352941%,63.921569%);stop-opacity:0.458824;"/>
<stop offset="0.65" style="stop-color:rgb(30.196078%,56.862745%,58.431373%);stop-opacity:0.603922;"/>
<stop offset="0.776" style="stop-color:rgb(18.823529%,53.333333%,54.509804%);stop-opacity:0.745098;"/>
<stop offset="0.895" style="stop-color:rgb(7.843137%,51.372549%,52.54902%);stop-opacity:0.882353;"/>
<stop offset="1" style="stop-color:rgb(0%,50.588235%,51.764706%);stop-opacity:1;"/>
</linearGradient>
<linearGradient id="linear1" gradientUnits="userSpaceOnUse" x1="-16.8" y1="16.071" x2="1355.401" y2="16.071" gradientTransform="matrix(1,0,0,-1,16.8,702.696)">
<stop offset="0" style="stop-color:rgb(100%,100%,100%);stop-opacity:0;"/>
<stop offset="0.153" style="stop-color:rgb(75.294118%,81.960784%,82.745098%);stop-opacity:0.152941;"/>
<stop offset="0.306" style="stop-color:rgb(56.862745%,70.196078%,71.764706%);stop-opacity:0.305882;"/>
<stop offset="0.457" style="stop-color:rgb(42.745098%,62.352941%,63.921569%);stop-opacity:0.458824;"/>
<stop offset="0.604" style="stop-color:rgb(30.196078%,56.862745%,58.431373%);stop-opacity:0.603922;"/>
<stop offset="0.746" style="stop-color:rgb(18.823529%,53.333333%,54.509804%);stop-opacity:0.745098;"/>
<stop offset="0.881" style="stop-color:rgb(7.843137%,51.372549%,52.54902%);stop-opacity:0.882353;"/>
<stop offset="1" style="stop-color:rgb(0%,50.588235%,51.764706%);stop-opacity:1;"/>
</linearGradient>
<clipPath id="clip1">
  <rect x="0" y="0" width="300" height="300"/>
</clipPath>
<g id="surface5" clip-path="url(#clip1)">
<path style="fill-rule:nonzero;fill:url(#linear0);stroke-width:1;stroke-linecap:butt;stroke-linejoin:miter;stroke:url(#linear1);stroke-miterlimit:10;" d="M 1371.700718 686.592241 C 1371.700718 1065.242477 1064.724346 1372.198694 686.154102 1372.198694 C 307.458787 1372.198694 0.500282 1065.224602 0.500282 686.592241 C 0.500282 308.013502 307.458787 1.039411 686.154102 1.039411 C 1064.742213 1.057285 1371.700718 308.013502 1371.700718 686.592241 Z M 1371.700718 686.592241 " transform="matrix(0.218627,0,0,0.218539,0,0.00722273)"/>
</g>
</defs>
<g id="surface1">
<path style="fill-rule:nonzero;fill:rgb(0%,59.215686%,61.568627%);fill-opacity:1;stroke-width:0.932;stroke-linecap:butt;stroke-linejoin:miter;stroke:rgb(50.588235%,78.823529%,79.607843%);stroke-opacity:1;stroke-miterlimit:10;" d="M 1371.700718 686.020262 C 1371.700718 1064.688372 1064.724346 1371.626715 686.154102 1371.626715 C 307.458787 1371.626715 0.500282 1064.688372 0.500282 686.020262 C 0.500282 307.459398 307.458787 0.485306 686.154102 0.485306 C 1064.742213 0.485306 1371.700718 307.459398 1371.700718 686.020262 Z M 1371.700718 686.020262 " transform="matrix(0.218627,0,0,0.218539,0,0.00722273)"/>
<use xlink:href="#surface5" mask="url(#mask0)"/>
<path style=" stroke:none;fill-rule:nonzero;fill:rgb(100%,100%,100%);fill-opacity:1;" d="M 207.25 203.511719 C 204.425781 203.511719 201.539062 203.308594 198.695312 202.882812 C 174.871094 199.484375 158.9375 182.378906 150.015625 169.230469 C 141.0625 182.378906 125.132812 199.503906 101.316406 202.898438 C 98.484375 203.300781 95.625 203.503906 92.761719 203.503906 C 77.949219 203.503906 64.042969 197.996094 53.582031 187.988281 C 43.023438 177.898438 37.199219 164.359375 37.199219 149.925781 C 37.199219 135.472656 43.023438 121.949219 53.597656 111.84375 C 64.050781 101.835938 77.964844 96.339844 92.785156 96.339844 C 95.609375 96.339844 98.484375 96.542969 101.316406 96.949219 C 125.132812 100.34375 141.058594 117.453125 150.011719 130.601562 C 158.9375 117.453125 174.867188 100.351562 198.691406 96.949219 C 201.535156 96.542969 204.410156 96.339844 207.234375 96.339844 C 222.046875 96.339844 235.960938 101.851562 246.410156 111.84375 C 256.980469 121.949219 262.792969 135.472656 262.792969 149.925781 C 262.792969 164.359375 256.996094 177.898438 246.425781 187.988281 C 235.957031 197.992188 222.0625 203.511719 207.25 203.511719 M 160.5625 149.929688 C 165.21875 158.789062 178.941406 180.890625 201.378906 184.105469 C 203.34375 184.375 205.320312 184.523438 207.246094 184.523438 C 227.402344 184.523438 243.808594 169.007812 243.808594 149.925781 C 243.808594 130.84375 227.40625 115.324219 207.234375 115.324219 C 205.304688 115.324219 203.328125 115.464844 201.382812 115.746094 C 178.945312 118.949219 165.21875 141.054688 160.5625 149.929688 M 92.785156 115.332031 C 72.601562 115.332031 56.195312 130.847656 56.195312 149.929688 C 56.195312 169.011719 72.597656 184.53125 92.757812 184.53125 C 94.695312 184.53125 96.671875 184.378906 98.636719 184.109375 C 121.074219 180.898438 134.792969 158.808594 139.449219 149.9375 C 134.808594 141.078125 121.074219 118.957031 98.636719 115.761719 C 96.695312 115.46875 94.710938 115.332031 92.785156 115.332031 "/>
<path style=" stroke:none;fill-rule:nonzero;fill:rgb(100%,100%,100%);fill-opacity:1;" d="M 77.476562 144.691406 L 110.84375 144.691406 L 110.84375 155.4375 L 77.476562 155.4375 Z M 222.230469 144.691406 L 210.933594 144.691406 L 210.933594 133.382812 L 200.144531 133.382812 L 200.144531 144.691406 L 188.855469 144.691406 L 188.855469 155.4375 L 200.144531 155.4375 L 200.144531 166.746094 L 210.933594 166.746094 L 210.933594 155.4375 L 222.230469 155.4375 Z M 222.230469 144.691406 "/>
</g>
</svg>
