<?xml version="1.0" encoding="UTF-8"?>
<svg xmlns="http://www.w3.org/2000/svg" xmlns:xlink="http://www.w3.org/1999/xlink" width="256px" height="288px" viewBox="0 0 256 287" version="1.1">
<g id="surface1">
<path style=" stroke:none;fill-rule:evenodd;fill:rgb(0%,26.666667%,50.980392%);fill-opacity:1;" d="M 110.289062 153.828125 C 100.476562 159.480469 92.160156 164.261719 91.8125 164.449219 L 91.179688 164.796875 L 92.925781 167.347656 C 99.234375 176.554688 108.535156 182.679688 119.917969 185.125 L 122.285156 185.632812 L 133.714844 185.632812 L 136.613281 184.984375 C 145.320312 183.042969 153.207031 178.644531 158.933594 172.542969 C 160.800781 170.546875 163.726562 166.753906 164.414062 165.429688 L 164.816406 164.652344 L 164.1875 164.257812 C 163.726562 163.96875 129.199219 144.136719 128.277344 143.628906 C 128.199219 143.585938 120.105469 148.175781 110.289062 153.828125 M 200.90625 187.941406 C 198.132812 192.667969 193.371094 198.683594 188.652344 203.414062 C 175.476562 216.625 159.058594 224.820312 139.714844 227.84375 L 135.949219 228.433594 L 128 228.433594 L 120.050781 228.429688 L 116.007812 227.804688 C 96.75 224.828125 80.613281 216.714844 67.441406 203.386719 C 62.273438 198.160156 60.078125 195.460938 56.191406 189.570312 L 54.03125 186.292969 L 53.710938 186.417969 C 53.535156 186.484375 42.347656 192.890625 28.855469 200.652344 C 15.363281 208.414062 4.046875 214.890625 3.710938 215.046875 L 3.097656 215.324219 L 4.160156 216.886719 C 5.757812 219.230469 7.683594 221.253906 9.589844 222.589844 C 12.042969 224.316406 117.242188 284.761719 119.078125 285.503906 C 119.917969 285.84375 121.578125 286.320312 122.757812 286.5625 L 124.910156 287 L 131.089844 287 L 133.242188 286.5625 C 134.421875 286.320312 136.082031 285.84375 136.921875 285.503906 C 138.757812 284.761719 243.957031 224.316406 246.410156 222.589844 C 248.320312 221.25 250.242188 219.230469 251.847656 216.871094 L 252.921875 215.292969 L 228.039062 200.992188 C 214.351562 193.125 202.894531 186.550781 202.574219 186.382812 L 201.996094 186.082031 L 200.90625 187.941406 "/>
<path style=" stroke:none;fill-rule:evenodd;fill:rgb(0%,34.509804%,61.176471%);fill-opacity:1;" d="M 227.554688 86.320312 C 213.675781 94.324219 194.285156 105.5 184.46875 111.160156 C 174.65625 116.816406 165.855469 121.875 164.914062 122.394531 C 160.046875 125.082031 128.300781 143.378906 128.292969 143.5 C 128.289062 143.628906 164.25 164.371094 164.882812 164.605469 C 165.042969 164.664062 173.40625 169.464844 183.46875 175.277344 C 193.527344 181.089844 212.742188 192.164062 226.160156 199.886719 C 239.582031 207.609375 251.097656 214.238281 251.753906 214.617188 L 252.941406 215.308594 L 253.929688 213.179688 C 254.46875 212.007812 255.160156 210.097656 255.457031 208.933594 L 256 206.816406 L 256 80.183594 L 255.457031 78.066406 C 254.992188 76.25 253.140625 71.726562 252.882812 71.761719 C 252.832031 71.769531 241.4375 78.320312 227.554688 86.320312 M 194.371094 134.042969 L 194.371094 138.773438 L 184.890625 138.773438 L 184.890625 148.226562 L 194.371094 148.226562 L 194.371094 157.683594 L 203.851562 157.683594 L 203.851562 148.226562 L 213.332031 148.226562 L 213.332031 138.773438 L 203.851562 138.773438 L 203.851562 129.316406 L 194.371094 129.316406 L 194.371094 134.042969 M 229.785156 134.042969 L 229.785156 138.773438 L 220.304688 138.773438 L 220.304688 148.226562 L 229.785156 148.226562 L 229.785156 157.683594 L 239.546875 157.683594 L 239.546875 148.226562 L 249.027344 148.226562 L 249.027344 138.773438 L 239.546875 138.773438 L 239.546875 129.316406 L 229.785156 129.316406 L 229.785156 134.042969 M 188.363281 203.640625 L 186.980469 205.097656 L 188.445312 203.71875 C 189.25 202.960938 189.910156 202.304688 189.910156 202.257812 C 189.910156 202.050781 189.648438 202.28125 188.363281 203.640625 "/>
<path style=" stroke:none;fill-rule:evenodd;fill:rgb(19.215686%,44.705882%,68.627451%);fill-opacity:1;" d="M 122.5625 0.460938 C 121.488281 0.6875 119.917969 1.152344 119.078125 1.496094 C 117.371094 2.183594 12.953125 62.148438 9.972656 64.148438 C 5.6875 67.023438 1.964844 72.519531 0.542969 78.066406 L 0 80.183594 L 0 206.816406 L 0.542969 208.933594 C 1.066406 210.980469 2.859375 215.25 3.195312 215.25 C 3.285156 215.25 14.734375 208.710938 28.640625 200.71875 C 42.546875 192.726562 54.050781 186.230469 54.210938 186.277344 C 54.371094 186.328125 54.300781 186.140625 54.050781 185.863281 C 53.335938 185.050781 49.828125 177.867188 48.4375 174.355469 C 46.121094 168.507812 44.363281 161.777344 43.320312 154.761719 L 42.820312 151.425781 L 42.820312 135.574219 L 43.320312 132.238281 C 45.261719 119.203125 49.660156 107.492188 56.539062 97.058594 C 71.300781 74.664062 94.855469 60.816406 121.863281 58.652344 L 125.910156 58.328125 L 130.511719 58.496094 C 142.148438 58.921875 152.472656 61.296875 162.972656 65.960938 C 177.988281 72.628906 191.304688 84.097656 200.117188 97.957031 L 201.894531 100.757812 L 201.550781 101.179688 L 201.203125 101.601562 L 202.316406 100.886719 C 202.929688 100.496094 213.722656 94.261719 226.300781 87.039062 C 238.878906 79.816406 250.015625 73.414062 251.050781 72.8125 L 252.933594 71.722656 L 251.855469 70.136719 C 250.242188 67.769531 248.324219 65.75 246.410156 64.410156 C 243.949219 62.683594 138.753906 2.234375 136.921875 1.496094 C 136.082031 1.15625 134.421875 0.679688 133.242188 0.4375 L 131.089844 0 L 127.800781 0.0234375 L 124.515625 0.046875 L 122.5625 0.460938 M 124.289062 101.230469 C 116.9375 101.925781 110.292969 104.300781 104.046875 108.46875 L 101.453125 110.199219 L 98.792969 112.734375 C 94.796875 116.546875 92.28125 119.925781 89.851562 124.757812 C 88.117188 128.203125 86.929688 131.707031 86.128906 135.761719 L 85.507812 138.910156 L 85.507812 148.089844 L 86.121094 151.195312 C 86.457031 152.902344 87.050781 155.277344 87.4375 156.476562 C 88.164062 158.734375 90.875 164.636719 91.1875 164.636719 C 91.285156 164.636719 98.507812 160.527344 107.242188 155.507812 C 150.421875 130.683594 164.171875 122.789062 164.808594 122.457031 C 165.195312 122.253906 165.363281 122.089844 165.183594 122.089844 C 165.007812 122.085938 164.128906 120.996094 163.234375 119.660156 L 161.601562 117.234375 L 158.820312 114.347656 C 154.515625 109.878906 150.242188 106.90625 144.710938 104.527344 C 138.433594 101.828125 130.867188 100.605469 124.289062 101.230469 M 229.902344 134.042969 C 229.902344 136.722656 229.941406 137.816406 229.996094 136.476562 C 230.046875 135.140625 230.046875 132.949219 229.996094 131.609375 C 229.941406 130.273438 229.902344 131.367188 229.902344 134.042969 M 239.382812 134.042969 C 239.382812 136.722656 239.425781 137.816406 239.476562 136.476562 C 239.527344 135.140625 239.527344 132.949219 239.476562 131.609375 C 239.425781 130.273438 239.382812 131.367188 239.382812 134.042969 M 220.417969 143.5 C 220.417969 146.175781 220.460938 147.273438 220.511719 145.933594 C 220.5625 144.59375 220.5625 142.40625 220.511719 141.066406 C 220.460938 139.726562 220.417969 140.824219 220.417969 143.5 M 248.863281 143.5 C 248.863281 146.175781 248.90625 147.273438 248.957031 145.933594 C 249.007812 144.59375 249.007812 142.40625 248.957031 141.066406 C 248.90625 139.726562 248.863281 140.824219 248.863281 143.5 M 229.902344 152.957031 C 229.902344 155.632812 229.941406 156.726562 229.996094 155.390625 C 230.046875 154.050781 230.046875 151.859375 229.996094 150.523438 C 229.941406 149.183594 229.902344 150.277344 229.902344 152.957031 M 239.382812 152.957031 C 239.382812 155.632812 239.425781 156.726562 239.476562 155.390625 C 239.527344 154.050781 239.527344 151.859375 239.476562 150.523438 C 239.425781 149.183594 239.382812 150.277344 239.382812 152.957031 M 157.96875 173.605469 L 156.582031 175.0625 L 158.046875 173.683594 C 158.851562 172.925781 159.511719 172.269531 159.511719 172.222656 C 159.511719 172.015625 159.253906 172.246094 157.96875 173.605469 M 126.398438 185.976562 C 127.277344 186.03125 128.722656 186.03125 129.601562 185.976562 C 130.484375 185.921875 129.765625 185.875 128 185.875 C 126.234375 185.875 125.515625 185.921875 126.398438 185.976562 M 123.328125 228.519531 C 123.75 228.582031 124.441406 228.582031 124.863281 228.519531 L 125.628906 228.402344 L 122.5625 228.402344 L 123.328125 228.519531 M 130.859375 228.519531 C 131.28125 228.582031 131.96875 228.582031 132.390625 228.519531 L 133.160156 228.402344 L 130.089844 228.402344 L 130.859375 228.519531 "/>
</g>
</svg>
