<?xml version="1.0" encoding="UTF-8"?>
<svg xmlns="http://www.w3.org/2000/svg" xmlns:xlink="http://www.w3.org/1999/xlink" width="240px" height="300px" viewBox="0 0 240 300" version="1.1">
<g id="surface1">
<path style=" stroke:none;fill-rule:nonzero;fill:rgb(14.901961%,30.196078%,89.411765%);fill-opacity:1;" d="M 119.851562 300.003906 L 21.972656 275.90625 L 0.167969 58.960938 L 239.816406 58.960938 L 217.988281 275.875 Z M 119.851562 300.003906 "/>
<path style=" stroke:none;fill-rule:nonzero;fill:rgb(16.078431%,39.607843%,94.509804%);fill-opacity:1;" d="M 199.296875 262.0625 L 217.953125 76.695312 L 119.992188 76.695312 L 119.992188 281.558594 Z M 199.296875 262.0625 "/>
<path style=" stroke:none;fill-rule:nonzero;fill:rgb(92.156863%,92.156863%,92.156863%);fill-opacity:1;" d="M 50.167969 157.160156 L 52.855469 183.765625 L 119.992188 183.765625 L 119.992188 157.160156 Z M 50.167969 157.160156 "/>
<path style=" stroke:none;fill-rule:nonzero;fill:rgb(92.156863%,92.156863%,92.156863%);fill-opacity:1;" d="M 44.761719 103.304688 L 47.492188 129.910156 L 119.992188 129.910156 L 119.992188 103.304688 Z M 44.761719 103.304688 "/>
<path style=" stroke:none;fill-rule:nonzero;fill:rgb(92.156863%,92.156863%,92.156863%);fill-opacity:1;" d="M 119.992188 226.261719 L 119.863281 226.296875 L 86.445312 218.292969 L 84.3125 197.070312 L 54.195312 197.070312 L 58.398438 238.851562 L 119.851562 253.980469 L 119.992188 253.949219 Z M 119.992188 226.261719 "/>
<path style=" stroke:none;fill-rule:nonzero;fill:rgb(0%,0%,0%);fill-opacity:1;" d="M 56.570312 0 L 92.902344 0 L 92.902344 13.476562 L 71.765625 13.476562 L 71.765625 26.953125 L 92.902344 26.953125 L 92.902344 40.429688 L 56.570312 40.429688 Z M 56.570312 0 "/>
<path style=" stroke:none;fill-rule:nonzero;fill:rgb(0%,0%,0%);fill-opacity:1;" d="M 100.171875 0 L 136.511719 0 L 136.511719 11.71875 L 115.367188 11.71875 L 115.367188 14.0625 L 136.511719 14.0625 L 136.511719 41.015625 L 100.171875 41.015625 L 100.171875 28.710938 L 121.316406 28.710938 L 121.316406 26.367188 L 100.171875 26.367188 Z M 100.171875 0 "/>
<path style=" stroke:none;fill-rule:nonzero;fill:rgb(0%,0%,0%);fill-opacity:1;" d="M 143.777344 0 L 180.117188 0 L 180.117188 11.71875 L 158.976562 11.71875 L 158.976562 14.0625 L 180.117188 14.0625 L 180.117188 41.015625 L 143.777344 41.015625 L 143.777344 28.710938 L 164.917969 28.710938 L 164.917969 26.367188 L 143.777344 26.367188 Z M 143.777344 0 "/>
<path style=" stroke:none;fill-rule:nonzero;fill:rgb(100%,100%,100%);fill-opacity:1;" d="M 189.628906 157.160156 L 195.046875 103.304688 L 119.890625 103.304688 L 119.890625 129.910156 L 162.164062 129.910156 L 159.433594 157.160156 L 119.890625 157.160156 L 119.890625 183.765625 L 156.832031 183.765625 L 153.351562 218.277344 L 119.890625 226.285156 L 119.890625 253.96875 L 181.394531 238.851562 L 181.84375 234.355469 L 188.898438 164.304688 Z M 189.628906 157.160156 "/>
</g>
</svg>
