<?xml version="1.0" standalone="no"?>
<!DOCTYPE svg PUBLIC "-//W3C//DTD SVG 20010904//EN"
 "http://www.w3.org/TR/2001/REC-SVG-20010904/DTD/svg10.dtd">
<svg version="1.0" xmlns="http://www.w3.org/2000/svg"
 width="265.000000pt" height="233.000000pt" viewBox="0 0 265.000000 233.000000"
 preserveAspectRatio="xMidYMid meet">

<g transform="translate(0.000000,233.000000) scale(0.100000,-0.100000)"
fill="#000000" stroke="none">
<path d="M627 1373 c1 -329 2 -626 3 -660 l0 -63 55 0 54 0 3 -67 3 -68 668
-3 667 -2 0 670 0 670 -70 0 -70 0 0 60 0 60 -657 0 -658 0 2 -597z m1403
-193 l0 -620 -620 0 -620 0 0 45 0 45 575 0 575 0 0 575 0 575 45 0 45 0 0
-620z m-942 304 l47 -66 3 66 3 66 54 0 55 0 0 -155 0 -155 -52 0 c-53 1 -53
1 -98 61 l-45 61 -3 -61 -3 -61 -54 0 -55 0 0 155 0 155 50 0 50 0 48 -66z
m360 -159 l47 -66 5 63 5 63 55 0 55 0 0 -155 0 -155 -47 -3 c-47 -3 -47 -3
-100 62 l-53 65 -3 -65 -3 -65 -52 3 -52 3 -3 158 -3 157 51 0 50 0 48 -65z"/>
</g>
</svg>
