<?xml version="1.0" encoding="UTF-8"?>
<!DOCTYPE svg PUBLIC "-//W3C//DTD SVG 1.1//EN" "http://www.w3.org/Graphics/SVG/1.1/DTD/svg11.dtd">
<svg xmlns="http://www.w3.org/2000/svg" version="1.1" width="211px" height="238px" style="shape-rendering:geometricPrecision; text-rendering:geometricPrecision; image-rendering:optimizeQuality; fill-rule:evenodd; clip-rule:evenodd" xmlns:xlink="http://www.w3.org/1999/xlink">
<g><path style="opacity:1" fill="#fefefd" d="M -0.5,-0.5 C 32.8333,-0.5 66.1667,-0.5 99.5,-0.5C 69.0601,17.5591 38.3934,35.3924 7.5,53C 3.95246,55.9753 1.2858,59.4753 -0.5,63.5C -0.5,42.1667 -0.5,20.8333 -0.5,-0.5 Z"/></g>
<g><path style="opacity:1" fill="#539e43" d="M 99.5,-0.5 C 102.167,-0.5 104.833,-0.5 107.5,-0.5C 110.541,0.229073 113.541,1.39574 116.5,3C 144.003,19.2526 171.67,35.2526 199.5,51C 204.491,54.1476 208.157,58.3143 210.5,63.5C 210.5,99.5 210.5,135.5 210.5,171.5C 209.36,177.158 206.36,181.658 201.5,185C 170.901,202.794 140.235,220.294 109.5,237.5C 106.5,237.5 103.5,237.5 100.5,237.5C 88.9286,230.707 77.262,223.873 65.5,217C 64.1667,216 64.1667,215 65.5,214C 70.4005,212.298 75.2338,210.465 80,208.5C 87.6811,212.259 95.1811,216.426 102.5,221C 104.167,221.667 105.833,221.667 107.5,221C 136.415,204.293 165.249,187.46 194,170.5C 194.667,135.833 194.667,101.167 194,66.5C 164.598,48.968 134.932,31.968 105,15.5C 74.8224,31.6735 44.989,48.5068 15.5,66C 14.3376,100.429 14.1709,134.929 15,169.5C 23.3773,175.612 32.2106,181.112 41.5,186C 50.6597,189.903 57.1597,187.403 61,178.5C 61.5,143.835 61.6667,109.168 61.5,74.5C 66.7616,74.1953 71.9283,74.5286 77,75.5C 77.6667,110.833 77.6667,146.167 77,181.5C 73.1183,199.545 61.9516,206.712 43.5,203C 31.4261,197.796 19.7594,191.796 8.5,185C 3.60567,181.633 0.605673,177.133 -0.5,171.5C -0.5,135.5 -0.5,99.5 -0.5,63.5C 1.2858,59.4753 3.95246,55.9753 7.5,53C 38.3934,35.3924 69.0601,17.5591 99.5,-0.5 Z"/></g>
<g><path style="opacity:1" fill="#fefefd" d="M 107.5,-0.5 C 141.833,-0.5 176.167,-0.5 210.5,-0.5C 210.5,20.8333 210.5,42.1667 210.5,63.5C 208.157,58.3143 204.491,54.1476 199.5,51C 171.67,35.2526 144.003,19.2526 116.5,3C 113.541,1.39574 110.541,0.229073 107.5,-0.5 Z"/></g>
<g><path style="opacity:1" fill="#fdfdfc" d="M 100.5,237.5 C 66.8333,237.5 33.1667,237.5 -0.5,237.5C -0.5,215.5 -0.5,193.5 -0.5,171.5C 0.605673,177.133 3.60567,181.633 8.5,185C 19.7594,191.796 31.4261,197.796 43.5,203C 61.9516,206.712 73.1183,199.545 77,181.5C 77.6667,146.167 77.6667,110.833 77,75.5C 71.9283,74.5286 66.7616,74.1953 61.5,74.5C 61.6667,109.168 61.5,143.835 61,178.5C 57.1597,187.403 50.6597,189.903 41.5,186C 32.2106,181.112 23.3773,175.612 15,169.5C 14.1709,134.929 14.3376,100.429 15.5,66C 44.989,48.5068 74.8224,31.6735 105,15.5C 134.932,31.968 164.598,48.968 194,66.5C 194.667,101.167 194.667,135.833 194,170.5C 165.249,187.46 136.415,204.293 107.5,221C 105.833,221.667 104.167,221.667 102.5,221C 95.1811,216.426 87.6811,212.259 80,208.5C 75.2338,210.465 70.4005,212.298 65.5,214C 64.1667,215 64.1667,216 65.5,217C 77.262,223.873 88.9286,230.707 100.5,237.5 Z"/></g>
<g><path style="opacity:1" fill="#549e43" d="M 116.5,71.5 C 129.049,70.7019 141.382,71.8686 153.5,75C 166.085,80.3349 171.919,89.8349 171,103.5C 166.218,104.802 161.385,104.802 156.5,103.5C 155.249,95.7492 150.916,90.5826 143.5,88C 135.208,86.5949 126.875,86.2615 118.5,87C 108.686,88.4631 104.853,93.9631 107,103.5C 108.255,104.211 109.421,105.044 110.5,106C 126.111,109.244 141.777,112.244 157.5,115C 171.953,119.134 177.786,128.634 175,143.5C 170.464,157.865 160.631,165.699 145.5,167C 133.79,167.861 122.123,167.527 110.5,166C 94.3703,161.552 86.2036,151.052 86,134.5C 91.082,133.363 96.2487,133.196 101.5,134C 102.684,144.185 108.35,150.185 118.5,152C 128.219,152.859 137.885,152.526 147.5,151C 155.861,149.109 159.361,143.942 158,135.5C 157.167,133.333 155.667,131.833 153.5,131C 150.167,130 146.833,129 143.5,128C 132.106,126.697 120.772,125.031 109.5,123C 90.6892,117.209 84.8558,105.042 92,86.5C 98.0961,78.0389 106.263,73.0389 116.5,71.5 Z"/></g>
<g><path style="opacity:1" fill="#fefefd" d="M 210.5,171.5 C 210.5,193.5 210.5,215.5 210.5,237.5C 176.833,237.5 143.167,237.5 109.5,237.5C 140.235,220.294 170.901,202.794 201.5,185C 206.36,181.658 209.36,177.158 210.5,171.5 Z"/></g>
</svg>
