<?xml version="1.0" encoding="UTF-8"?>
<svg xmlns="http://www.w3.org/2000/svg" xmlns:xlink="http://www.w3.org/1999/xlink" width="256px" height="288px" viewBox="0 0 256 288" version="1.1">
<g id="surface1">
<path style=" stroke:none;fill-rule:evenodd;fill:rgb(21.176471%,42.352941%,60.392157%);fill-opacity:1;" d="M 115.53125 0.394531 C 88.425781 2.453125 71.769531 11.019531 67.359375 25.167969 L 66.503906 27.914062 L 66.5 46.464844 L 66.492188 65.011719 L 128.332031 65.011719 L 128.332031 74.980469 L 82.3125 74.957031 L 36.300781 74.933594 L 34.375 75.351562 C 24.648438 77.464844 16.332031 83.957031 10.617188 93.886719 C 4.757812 104.066406 1.683594 116.816406 0.597656 135.390625 L 0.179688 142.554688 L 0.585938 151.355469 L 0.988281 160.15625 L 1.738281 165.960938 C 4.261719 185.519531 10.109375 199.488281 19.21875 207.710938 L 22.027344 210.238281 L 24.957031 211.820312 C 26.570312 212.691406 28.871094 213.722656 30.078125 214.113281 L 32.277344 214.835938 L 45.300781 214.984375 L 58.3125 215.128906 L 58.3125 175.910156 L 58.9375 172.277344 C 60.253906 164.605469 62.433594 158.761719 65.980469 153.410156 L 67.984375 150.398438 L 70.757812 147.898438 C 74.785156 144.273438 78.808594 142.136719 84.441406 140.632812 L 87.164062 139.910156 L 124.125 139.632812 L 161.082031 139.355469 L 163.507812 138.683594 C 171.832031 136.375 178.933594 131.839844 182.957031 126.25 C 186.152344 121.820312 188.667969 115.039062 189.421875 108.828125 L 189.808594 105.582031 L 189.808594 33.265625 L 189.261719 30.796875 C 188.957031 29.4375 188.023438 26.765625 187.183594 24.859375 L 185.652344 21.398438 L 182.988281 18.183594 L 180.324219 14.980469 L 177.65625 12.894531 C 172.148438 8.585938 164.835938 5.257812 156.144531 3.082031 C 145.460938 0.414062 129.34375 -0.65625 115.53125 0.394531 M 88.976562 23.164062 L 87.136719 23.972656 L 85.546875 25.695312 L 83.957031 27.421875 L 83.003906 29.742188 L 82.046875 32.058594 L 82.0625 34.957031 L 82.089844 37.859375 L 82.847656 39.773438 C 83.265625 40.828125 84.195312 42.429688 84.910156 43.320312 L 86.203125 44.957031 L 90.425781 47.375 L 93.003906 47.363281 L 95.578125 47.359375 L 97.621094 46.292969 L 99.667969 45.222656 L 102.71875 41.625 L 104.179688 37.207031 L 104.179688 32.414062 L 102.953125 28.328125 L 100.914062 26.011719 L 98.871094 23.703125 L 97.066406 23.015625 L 95.265625 22.316406 L 93.042969 22.34375 L 90.824219 22.355469 L 88.976562 23.164062 "/>
<path style=" stroke:none;fill-rule:evenodd;fill:rgb(100%,85.490196%,29.411765%);fill-opacity:1;" d="M 198.125 93.277344 L 197.953125 113.722656 L 197.207031 117.246094 C 195.007812 127.625 191.328125 134.816406 185.460938 140.191406 C 181.023438 144.246094 176.078125 146.523438 169.089844 147.71875 L 165.472656 148.335938 L 131.878906 148.335938 L 98.28125 148.34375 L 95.652344 148.785156 C 88.402344 150.019531 81.710938 153.246094 77.058594 157.746094 C 72.722656 161.941406 70.246094 166.171875 68.363281 172.589844 L 67.273438 176.324219 L 66.859375 180.46875 L 66.449219 184.613281 L 66.5625 220.46875 L 66.671875 256.328125 L 67.652344 259.371094 C 68.191406 261.039062 69.179688 263.460938 69.851562 264.746094 L 71.066406 267.078125 L 73.992188 270.449219 C 77.476562 274.457031 80.285156 276.667969 85.289062 279.347656 C 93.53125 283.761719 102.976562 286.195312 116.566406 287.410156 C 135.300781 289.085938 154.8125 287.109375 168.003906 282.195312 C 178.792969 278.1875 186.625 271.03125 189.078125 262.957031 C 189.972656 260.015625 189.964844 260.1875 189.882812 240.058594 L 189.808594 222.957031 L 127.941406 222.957031 L 128.144531 213.21875 L 174.4375 213.140625 L 220.730469 213.050781 L 224.339844 212.007812 L 227.953125 210.953125 L 230.996094 209.289062 C 244.078125 202.117188 252.132812 186.476562 255.023438 162.640625 L 255.828125 156.003906 L 255.828125 132.378906 L 255.183594 126.160156 C 254.0625 115.308594 251.632812 104.632812 248.574219 97.136719 C 245.628906 89.914062 240.6875 82.996094 235.578125 78.933594 C 232.183594 76.242188 231.257812 75.699219 227.621094 74.261719 L 224.753906 73.136719 L 211.519531 72.984375 L 198.292969 72.835938 L 198.125 93.277344 M 160.535156 240.941406 C 159.632812 241.238281 158.386719 241.773438 157.761719 242.144531 C 156.210938 243.046875 154.015625 245.894531 153.09375 248.199219 L 152.308594 250.109375 L 152.300781 256.328125 L 153.199219 258.394531 C 153.691406 259.53125 154.8125 261.246094 155.679688 262.207031 L 157.257812 263.945312 L 159.359375 264.851562 L 161.449219 265.742188 L 166.308594 265.359375 L 167.902344 264.480469 C 170.023438 263.324219 172.082031 260.996094 173.269531 258.425781 L 174.238281 256.328125 L 174.238281 253.222656 L 174.242188 250.109375 L 173.46875 248.199219 C 173.042969 247.144531 172.082031 245.511719 171.339844 244.582031 L 169.980469 242.886719 L 168.097656 241.859375 L 166.207031 240.832031 L 162.175781 240.40625 L 160.535156 240.941406 "/>
</g>
</svg>
