<?xml version="1.0" encoding="UTF-8"?>
<svg xmlns="http://www.w3.org/2000/svg" xmlns:xlink="http://www.w3.org/1999/xlink" width="240px" height="300px" viewBox="0 0 240 300" version="1.1">
<g id="surface1">
<path style=" stroke:none;fill-rule:nonzero;fill:rgb(89.411765%,30.196078%,14.901961%);fill-opacity:1;" d="M 239.816406 58.960938 L 217.988281 275.875 L 119.851562 300.003906 L 21.972656 275.90625 L 0.167969 58.960938 Z M 239.816406 58.960938 "/>
<path style=" stroke:none;fill-rule:nonzero;fill:rgb(94.509804%,39.607843%,16.078431%);fill-opacity:1;" d="M 119.992188 281.554688 L 199.296875 262.0625 L 217.949219 76.695312 L 119.992188 76.695312 Z M 119.992188 281.554688 "/>
<path style=" stroke:none;fill-rule:nonzero;fill:rgb(92.156863%,92.156863%,92.156863%);fill-opacity:1;" d="M 77.546875 129.910156 L 119.992188 129.910156 L 119.992188 103.304688 L 44.761719 103.304688 L 45.476562 110.445312 L 52.855469 183.765625 L 119.992188 183.765625 L 119.992188 157.160156 L 80.292969 157.160156 Z M 84.3125 197.074219 L 54.195312 197.074219 L 58.398438 238.851562 L 119.851562 253.980469 L 119.992188 253.945312 L 119.992188 226.265625 L 119.863281 226.292969 L 86.453125 218.292969 Z M 84.3125 197.074219 "/>
<path style=" stroke:none;fill-rule:nonzero;fill:rgb(0%,0%,0%);fill-opacity:1;" d="M 22.460938 0 L 37.710938 0 L 37.710938 13.359375 L 51.65625 13.359375 L 51.65625 0 L 66.90625 0 L 66.90625 40.453125 L 51.65625 40.453125 L 51.65625 26.910156 L 37.710938 26.910156 L 37.710938 40.453125 L 22.46875 40.453125 L 22.46875 0 Z M 86.953125 13.414062 L 73.535156 13.414062 L 73.535156 0 L 115.632812 0 L 115.632812 13.414062 L 102.203125 13.414062 L 102.203125 40.453125 L 86.957031 40.453125 L 86.957031 13.414062 Z M 122.3125 0 L 138.210938 0 L 147.988281 14.21875 L 157.761719 0 L 173.664062 0 L 173.664062 40.453125 L 158.480469 40.453125 L 158.480469 20.40625 L 147.988281 34.789062 L 147.730469 34.789062 L 137.230469 20.40625 L 137.230469 40.453125 L 122.3125 40.453125 Z M 181.253906 0 L 196.503906 0 L 196.503906 27.082031 L 217.945312 27.082031 L 217.945312 40.453125 L 181.253906 40.453125 Z M 181.253906 0 "/>
<path style=" stroke:none;fill-rule:nonzero;fill:rgb(100%,100%,100%);fill-opacity:1;" d="M 119.890625 183.765625 L 156.832031 183.765625 L 153.351562 218.277344 L 119.890625 226.285156 L 119.890625 253.96875 L 181.394531 238.851562 L 181.84375 234.355469 L 188.898438 164.300781 L 189.628906 157.160156 L 119.890625 157.160156 Z M 119.890625 129.847656 L 119.890625 129.910156 L 192.359375 129.910156 L 192.960938 123.929688 L 194.328125 110.445312 L 195.046875 103.304688 L 119.890625 103.304688 L 119.890625 129.851562 Z M 119.890625 129.847656 "/>
</g>
</svg>
