<?xml version="1.0" encoding="UTF-8"?>
<svg xmlns="http://www.w3.org/2000/svg" xmlns:xlink="http://www.w3.org/1999/xlink" width="300px" height="300px" viewBox="0 0 300 300" version="1.1">
<g id="surface1">
<path style=" stroke:none;fill-rule:nonzero;fill:rgb(12.54902%,76.078431%,49.803922%);fill-opacity:1;" d="M 149.597656 15.015625 C 150.40625 15.015625 150.40625 15.015625 151.226562 15.015625 C 160.371094 15.039062 169.160156 15.640625 178.125 17.578125 C 178.707031 17.703125 179.289062 17.828125 179.890625 17.957031 C 188.175781 19.8125 196.085938 22.492188 203.90625 25.78125 C 204.335938 25.960938 204.765625 26.140625 205.210938 26.324219 C 215.261719 30.59375 224.695312 36.53125 233.203125 43.359375 C 233.71875 43.765625 234.238281 44.167969 234.769531 44.585938 C 240.933594 49.503906 246.96875 54.808594 251.953125 60.9375 C 252.523438 61.609375 253.09375 62.285156 253.664062 62.957031 C 258.273438 68.445312 262.316406 74.136719 266.015625 80.273438 C 266.386719 80.886719 266.386719 80.886719 266.769531 81.511719 C 279.179688 102.183594 285.039062 125.605469 284.984375 149.597656 C 284.984375 150.40625 284.984375 150.40625 284.984375 151.226562 C 284.960938 160.371094 284.359375 169.160156 282.421875 178.125 C 282.234375 179 282.234375 179 282.042969 179.890625 C 280.1875 188.175781 277.507812 196.085938 274.21875 203.90625 C 274.039062 204.335938 273.859375 204.765625 273.675781 205.210938 C 269.40625 215.261719 263.46875 224.695312 256.640625 233.203125 C 256.234375 233.71875 255.832031 234.238281 255.414062 234.769531 C 250.496094 240.933594 245.191406 246.96875 239.0625 251.953125 C 238.390625 252.523438 237.714844 253.09375 237.042969 253.664062 C 231.554688 258.273438 225.863281 262.316406 219.726562 266.015625 C 219.316406 266.265625 218.910156 266.511719 218.488281 266.769531 C 197.816406 279.179688 174.394531 285.039062 150.402344 284.984375 C 149.59375 284.984375 149.59375 284.984375 148.773438 284.984375 C 139.628906 284.960938 130.839844 284.359375 121.875 282.421875 C 121 282.234375 121 282.234375 120.109375 282.042969 C 111.824219 280.1875 103.914062 277.507812 96.09375 274.21875 C 95.664062 274.039062 95.234375 273.859375 94.789062 273.675781 C 84.738281 269.40625 75.304688 263.46875 66.796875 256.640625 C 66.28125 256.234375 65.761719 255.832031 65.230469 255.414062 C 59.066406 250.496094 53.03125 245.191406 48.046875 239.0625 C 47.476562 238.390625 46.90625 237.714844 46.335938 237.042969 C 41.726562 231.554688 37.683594 225.863281 33.984375 219.726562 C 33.734375 219.316406 33.488281 218.910156 33.230469 218.488281 C 20.820312 197.816406 14.960938 174.394531 15.015625 150.402344 C 15.015625 149.863281 15.015625 149.328125 15.015625 148.773438 C 15.039062 139.628906 15.640625 130.839844 17.578125 121.875 C 17.703125 121.292969 17.828125 120.710938 17.957031 120.109375 C 19.8125 111.824219 22.492188 103.914062 25.78125 96.09375 C 25.960938 95.664062 26.140625 95.234375 26.324219 94.789062 C 30.59375 84.738281 36.53125 75.304688 43.359375 66.796875 C 43.765625 66.28125 44.167969 65.761719 44.585938 65.230469 C 49.503906 59.066406 54.808594 53.03125 60.9375 48.046875 C 61.609375 47.476562 62.285156 46.90625 62.957031 46.335938 C 68.445312 41.726562 74.136719 37.683594 80.273438 33.984375 C 80.683594 33.734375 81.089844 33.488281 81.511719 33.230469 C 102.183594 20.820312 125.605469 14.960938 149.597656 15.015625 Z M 149.597656 15.015625 "/>
<path style=" stroke:none;fill-rule:nonzero;fill:rgb(98.431373%,99.607843%,98.823529%);fill-opacity:1;" d="M 149.597656 15.015625 C 150.40625 15.015625 150.40625 15.015625 151.226562 15.015625 C 160.371094 15.039062 169.160156 15.640625 178.125 17.578125 C 178.707031 17.703125 179.289062 17.828125 179.890625 17.957031 C 188.175781 19.8125 196.085938 22.492188 203.90625 25.78125 C 204.335938 25.960938 204.765625 26.140625 205.210938 26.324219 C 215.261719 30.59375 224.695312 36.53125 233.203125 43.359375 C 233.71875 43.765625 234.238281 44.167969 234.769531 44.585938 C 240.933594 49.503906 246.96875 54.808594 251.953125 60.9375 C 252.523438 61.609375 253.09375 62.285156 253.664062 62.957031 C 258.273438 68.445312 262.316406 74.136719 266.015625 80.273438 C 266.386719 80.886719 266.386719 80.886719 266.769531 81.511719 C 279.179688 102.183594 285.039062 125.605469 284.984375 149.597656 C 284.984375 150.40625 284.984375 150.40625 284.984375 151.226562 C 284.960938 160.371094 284.359375 169.160156 282.421875 178.125 C 282.234375 179 282.234375 179 282.042969 179.890625 C 280.1875 188.175781 277.507812 196.085938 274.21875 203.90625 C 274.039062 204.335938 273.859375 204.765625 273.675781 205.210938 C 269.40625 215.261719 263.46875 224.695312 256.640625 233.203125 C 256.234375 233.71875 255.832031 234.238281 255.414062 234.769531 C 250.496094 240.933594 245.191406 246.96875 239.0625 251.953125 C 238.390625 252.523438 237.714844 253.09375 237.042969 253.664062 C 231.554688 258.273438 225.863281 262.316406 219.726562 266.015625 C 219.316406 266.265625 218.910156 266.511719 218.488281 266.769531 C 197.816406 279.179688 174.394531 285.039062 150.402344 284.984375 C 149.59375 284.984375 149.59375 284.984375 148.773438 284.984375 C 139.628906 284.960938 130.839844 284.359375 121.875 282.421875 C 121 282.234375 121 282.234375 120.109375 282.042969 C 111.824219 280.1875 103.914062 277.507812 96.09375 274.21875 C 95.664062 274.039062 95.234375 273.859375 94.789062 273.675781 C 84.738281 269.40625 75.304688 263.46875 66.796875 256.640625 C 66.28125 256.234375 65.761719 255.832031 65.230469 255.414062 C 59.066406 250.496094 53.03125 245.191406 48.046875 239.0625 C 47.476562 238.390625 46.90625 237.714844 46.335938 237.042969 C 41.726562 231.554688 37.683594 225.863281 33.984375 219.726562 C 33.734375 219.316406 33.488281 218.910156 33.230469 218.488281 C 20.820312 197.816406 14.960938 174.394531 15.015625 150.402344 C 15.015625 149.863281 15.015625 149.328125 15.015625 148.773438 C 15.039062 139.628906 15.640625 130.839844 17.578125 121.875 C 17.703125 121.292969 17.828125 120.710938 17.957031 120.109375 C 19.8125 111.824219 22.492188 103.914062 25.78125 96.09375 C 25.960938 95.664062 26.140625 95.234375 26.324219 94.789062 C 30.59375 84.738281 36.53125 75.304688 43.359375 66.796875 C 43.765625 66.28125 44.167969 65.761719 44.585938 65.230469 C 49.503906 59.066406 54.808594 53.03125 60.9375 48.046875 C 61.609375 47.476562 62.285156 46.90625 62.957031 46.335938 C 68.445312 41.726562 74.136719 37.683594 80.273438 33.984375 C 80.683594 33.734375 81.089844 33.488281 81.511719 33.230469 C 102.183594 20.820312 125.605469 14.960938 149.597656 15.015625 Z M 116.601562 27.539062 C 116.082031 27.691406 115.566406 27.84375 115.03125 28 C 93.855469 34.339844 75.511719 45.507812 59.765625 60.9375 C 59.417969 61.273438 59.070312 61.613281 58.710938 61.960938 C 56.476562 64.148438 54.457031 66.40625 52.550781 68.882812 C 52.277344 69.238281 52.003906 69.589844 51.722656 69.953125 C 50.882812 71.046875 50.050781 72.140625 49.21875 73.242188 C 48.839844 73.746094 48.839844 73.746094 48.449219 74.257812 C 28.339844 101.058594 19.871094 134.214844 24.421875 167.449219 C 24.484375 167.878906 24.546875 168.308594 24.609375 168.75 C 24.671875 169.1875 24.734375 169.625 24.800781 170.074219 C 25.660156 175.824219 26.929688 181.371094 28.710938 186.914062 C 28.910156 187.546875 28.910156 187.546875 29.113281 188.191406 C 32.96875 200.320312 38.351562 211.667969 45.703125 222.070312 C 46.140625 222.691406 46.582031 223.316406 47.03125 223.957031 C 54.035156 233.542969 62.0625 242.359375 71.484375 249.609375 C 71.800781 249.855469 72.117188 250.101562 72.441406 250.355469 C 99.09375 271.066406 132.722656 279.722656 166.105469 275.929688 C 174.472656 274.824219 182.449219 272.84375 190.429688 270.117188 C 190.957031 269.9375 191.484375 269.761719 192.03125 269.578125 C 210.285156 263.3125 225.792969 252.921875 239.648438 239.648438 C 240.089844 239.234375 240.527344 238.816406 240.980469 238.390625 C 263.894531 216.199219 276.328125 183.40625 276.84375 151.878906 C 277.066406 125.742188 269.789062 99.238281 254.296875 77.929688 C 253.929688 77.410156 253.929688 77.410156 253.554688 76.882812 C 240.292969 58.179688 222.871094 44.234375 202.148438 34.570312 C 201.570312 34.296875 201.570312 34.296875 200.980469 34.019531 C 175.398438 22.078125 143.734375 19.582031 116.601562 27.539062 Z M 116.601562 27.539062 "/>
<path style=" stroke:none;fill-rule:nonzero;fill:rgb(99.215686%,99.607843%,99.607843%);fill-opacity:1;" d="M 214.453125 53.320312 C 218.605469 94.847656 218.605469 94.847656 210.867188 105.347656 C 205.605469 111.742188 199.132812 116.832031 192.335938 121.503906 C 189.089844 123.855469 186.183594 126.617188 183.398438 129.492188 C 184.226562 131.382812 185.222656 132.632812 186.695312 134.070312 C 187.0625 134.4375 187.433594 134.800781 187.816406 135.179688 C 190.929688 138.082031 194.027344 140.742188 197.601562 143.0625 C 204.53125 147.703125 212.617188 153.921875 214.769531 162.378906 C 217.492188 176.519531 215.699219 192.011719 214.453125 206.25 C 210.132812 203.238281 206.511719 199.632812 202.816406 195.910156 C 202.125 195.21875 201.4375 194.527344 200.746094 193.835938 C 199.269531 192.359375 197.792969 190.878906 196.320312 189.394531 C 193.988281 187.050781 191.652344 184.710938 189.316406 182.371094 C 185.625 178.671875 181.933594 174.96875 178.246094 171.265625 C 171.632812 164.625 165.019531 157.992188 158.398438 151.359375 C 156.078125 149.035156 153.757812 146.707031 151.4375 144.375 C 150 142.929688 148.554688 141.484375 147.113281 140.039062 C 146.445312 139.367188 145.777344 138.695312 145.109375 138.023438 C 144.199219 137.109375 143.285156 136.191406 142.371094 135.277344 C 141.863281 134.765625 141.351562 134.253906 140.828125 133.726562 C 139.636719 132.597656 138.445312 131.609375 137.109375 130.664062 C 137.75 128.746094 138.121094 128.417969 139.632812 127.183594 C 143.097656 124.238281 146.261719 120.996094 149.46875 117.777344 C 150.171875 117.070312 150.875 116.367188 151.578125 115.664062 C 153.085938 114.152344 154.59375 112.644531 156.097656 111.132812 C 158.476562 108.746094 160.859375 106.359375 163.242188 103.976562 C 168.289062 98.921875 173.335938 93.863281 178.382812 88.804688 C 183.84375 83.332031 189.304688 77.855469 194.769531 72.386719 C 197.140625 70.011719 199.507812 67.636719 201.875 65.261719 C 203.34375 63.792969 204.8125 62.320312 206.28125 60.851562 C 206.964844 60.167969 207.648438 59.480469 208.328125 58.796875 C 209.257812 57.863281 210.183594 56.933594 211.113281 56.007812 C 211.636719 55.484375 212.15625 54.960938 212.691406 54.425781 C 213.867188 53.320312 213.867188 53.320312 214.453125 53.320312 Z M 214.453125 53.320312 "/>
<path style=" stroke:none;fill-rule:nonzero;fill:rgb(99.215686%,99.607843%,99.607843%);fill-opacity:1;" d="M 85.546875 93.75 C 89.542969 97.027344 93.140625 100.679688 96.785156 104.335938 C 97.5 105.050781 98.214844 105.765625 98.933594 106.484375 C 100.867188 108.417969 102.800781 110.355469 104.734375 112.292969 C 106.761719 114.320312 108.785156 116.347656 110.8125 118.375 C 114.644531 122.207031 118.472656 126.042969 122.304688 129.878906 C 126.664062 134.246094 131.027344 138.613281 135.394531 142.980469 C 144.363281 151.960938 153.335938 160.941406 162.304688 169.921875 C 161.386719 172.128906 160.011719 173.53125 158.332031 175.214844 C 158.042969 175.503906 157.757812 175.792969 157.460938 176.089844 C 156.5 177.058594 155.53125 178.019531 154.566406 178.984375 C 153.875 179.675781 153.183594 180.371094 152.492188 181.0625 C 150.613281 182.945312 148.734375 184.824219 146.851562 186.703125 C 144.882812 188.671875 142.914062 190.644531 140.945312 192.613281 C 137.636719 195.925781 134.324219 199.234375 131.011719 202.539062 C 127.1875 206.359375 123.367188 210.179688 119.550781 214.003906 C 116.269531 217.289062 112.988281 220.574219 109.703125 223.855469 C 107.742188 225.8125 105.78125 227.773438 103.824219 229.734375 C 101.980469 231.582031 100.136719 233.425781 98.285156 235.265625 C 97.609375 235.941406 96.9375 236.613281 96.261719 237.289062 C 92.867188 240.699219 89.507812 243.917969 85.546875 246.679688 C 81.394531 205.738281 81.394531 205.738281 89.132812 195.273438 C 94.402344 188.882812 100.875 183.777344 107.664062 179.085938 C 110.90625 176.730469 113.816406 173.96875 116.601562 171.09375 C 115.820312 169.351562 114.964844 168.140625 113.597656 166.808594 C 113.125 166.339844 113.125 166.339844 112.640625 165.863281 C 109.53125 162.988281 106.441406 160.355469 102.894531 158.03125 C 95.339844 152.933594 86.792969 146.25 84.957031 136.839844 C 82.796875 122.773438 84.289062 107.851562 85.546875 93.75 Z M 85.546875 93.75 "/>
<path style=" stroke:none;fill-rule:nonzero;fill:rgb(93.333333%,98.431373%,96.470588%);fill-opacity:1;" d="M 62.109375 46.875 C 62.496094 47.070312 62.882812 47.261719 63.28125 47.460938 C 58.0625 52.679688 52.839844 57.902344 47.460938 63.28125 C 47.460938 61.523438 47.460938 61.523438 48.214844 60.621094 C 48.558594 60.300781 48.902344 59.984375 49.253906 59.65625 C 50.765625 58.214844 52.160156 56.75 53.503906 55.152344 C 55.933594 52.320312 58.722656 49.914062 61.523438 47.460938 C 61.71875 47.265625 61.910156 47.074219 62.109375 46.875 Z M 62.109375 46.875 "/>
</g>
</svg>
