<?xml version="1.0" encoding="UTF-8"?>
<svg xmlns="http://www.w3.org/2000/svg" xmlns:xlink="http://www.w3.org/1999/xlink" width="300px" height="300px" viewBox="0 0 300 300" version="1.1">
<g id="surface1">
<path style=" stroke:none;fill-rule:evenodd;fill:rgb(10.588235%,12.156863%,13.72549%);fill-opacity:1;" d="M 150 0 C 67.125 0 0 67.125 0 150 C 0 216.375 42.9375 272.4375 102.5625 292.3125 C 110.0625 293.625 112.875 289.125 112.875 285.1875 C 112.875 281.625 112.6875 269.8125 112.6875 257.25 C 75 264.1875 65.25 248.0625 62.25 239.625 C 60.5625 235.3125 53.25 222 46.875 218.4375 C 41.625 215.625 34.125 208.6875 46.6875 208.5 C 58.5 208.3125 66.9375 219.375 69.75 223.875 C 83.25 246.5625 104.8125 240.1875 113.4375 236.25 C 114.75 226.5 118.6875 219.9375 123 216.1875 C 89.625 212.4375 54.75 199.5 54.75 142.125 C 54.75 125.8125 60.5625 112.3125 70.125 101.8125 C 68.625 98.0625 63.375 82.6875 71.625 62.0625 C 71.625 62.0625 84.1875 58.125 112.875 77.4375 C 124.875 74.0625 137.625 72.375 150.375 72.375 C 163.125 72.375 175.875 74.0625 187.875 77.4375 C 216.5625 57.9375 229.125 62.0625 229.125 62.0625 C 237.375 82.6875 232.125 98.0625 230.625 101.8125 C 240.1875 112.3125 246 125.625 246 142.125 C 246 199.6875 210.9375 212.4375 177.5625 216.1875 C 183 220.875 187.6875 229.875 187.6875 243.9375 C 187.6875 264 187.5 280.125 187.5 285.1875 C 187.5 289.125 190.3125 293.8125 197.8125 292.3125 C 257.0625 272.4375 300 216.1875 300 150 C 300 67.125 232.875 0 150 0 Z M 150 0 "/>
</g>
</svg>
