<?xml version="1.0" encoding="UTF-8"?>
<svg xmlns="http://www.w3.org/2000/svg" xmlns:xlink="http://www.w3.org/1999/xlink" width="256px" height="288px" viewBox="0 0 256 288" version="1.1">
<g id="surface1">
<path style="fill-rule:nonzero;fill:rgb(0%,0%,0%);fill-opacity:1;stroke-width:2.149;stroke-linecap:butt;stroke-linejoin:miter;stroke:rgb(0%,0%,0%);stroke-opacity:1;stroke-miterlimit:4;" d="M 18.982813 18.636111 C 19.146094 17.279167 19.096875 17.080903 20.107031 17.3 L 20.364063 17.322917 C 21.141016 17.357986 22.157031 17.197917 22.764063 16.920833 C 24.048828 16.325 24.810938 15.329167 23.544141 15.590972 C 20.653906 16.187153 20.444141 15.207986 20.444141 15.207986 C 23.496875 10.678125 24.773828 4.928125 23.671094 3.520833 C 20.667188 -0.319097 15.466016 1.496875 15.378906 1.545139 L 15.351172 1.55 C 14.780859 1.429861 14.151172 1.360069 13.421094 1.35 C 12.112891 1.329861 11.121094 1.693056 10.367188 2.263889 C 10.367188 2.263889 1.089844 -1.557986 1.521094 7.070833 C 1.612891 8.906944 4.151172 20.970833 7.180859 17.320833 C 8.289844 15.987153 9.360156 14.860069 9.360156 14.860069 C 9.889844 15.212847 10.526953 15.393056 11.194141 15.328125 L 11.246094 15.284028 C 11.230469 15.456944 11.2375 15.630903 11.267188 15.802083 C 10.487109 16.673958 10.717188 16.827083 9.157031 17.147917 C 7.578906 17.472917 8.507031 18.052083 9.110938 18.204167 C 9.844922 18.387847 11.542969 18.647917 12.691016 17.042014 L 12.644922 17.225 C 12.951172 17.470139 12.930078 18.985069 12.975 20.067014 C 13.019922 21.148958 13.091016 22.160069 13.312109 22.754861 C 13.532813 23.35 13.792188 24.885069 15.842188 24.454861 C 17.555078 24.087847 18.864844 23.559028 18.985156 18.645139 " transform="matrix(10,0,0,11.25,0,0)"/>
<path style=" stroke:none;fill-rule:nonzero;fill:rgb(20%,40.392157%,56.862745%);fill-opacity:1;" d="M 235.351562 175.5 C 206.449219 182.203125 204.351562 171.191406 204.351562 171.191406 C 234.878906 120.230469 247.648438 55.542969 236.628906 39.710938 C 206.589844 -3.488281 154.578125 16.953125 153.710938 17.484375 L 153.429688 17.539062 C 147.078125 16.105469 140.617188 15.347656 134.140625 15.277344 C 121.058594 15.050781 111.140625 19.136719 103.601562 25.558594 C 103.601562 25.558594 10.820312 -17.4375 15.140625 79.640625 C 16.058594 100.292969 41.441406 236.015625 71.738281 194.953125 C 82.898438 179.855469 93.601562 167.175781 93.601562 167.175781 C 98.898438 171.144531 105.269531 173.171875 111.941406 172.441406 L 112.460938 171.945312 C 112.308594 173.890625 112.378906 175.847656 112.671875 177.773438 C 104.871094 187.582031 107.171875 189.304688 91.570312 192.914062 C 75.789062 196.570312 85.070312 203.085938 91.109375 204.796875 C 98.449219 206.863281 115.429688 209.789062 126.910156 191.722656 L 126.449219 193.78125 C 129.511719 196.539062 131.648438 211.703125 131.289062 225.449219 C 130.929688 239.199219 130.691406 248.625 133.089844 256.003906 C 135.488281 263.386719 137.890625 279.96875 158.390625 275.128906 C 175.519531 271 184.390625 260.28125 185.640625 242.4375 C 186.519531 229.746094 188.5 231.613281 188.640625 220.273438 L 190.238281 214.898438 C 192.070312 197.683594 190.539062 192.140625 201.089844 194.726562 L 203.660156 194.984375 C 211.429688 195.378906 221.601562 193.578125 227.558594 190.460938 C 240.410156 183.757812 248.03125 172.550781 235.359375 175.5 Z M 235.351562 175.5 "/>
<path style="fill:none;stroke-width:0.716;stroke-linecap:round;stroke-linejoin:round;stroke:rgb(100%,100%,100%);stroke-opacity:1;stroke-miterlimit:4;" d="M 12.814063 16.467014 C 12.733984 19.312847 12.833984 22.179167 13.112109 22.867014 C 13.389844 23.554861 13.987109 24.917014 16.037891 24.479167 C 17.751172 24.112153 18.375 23.401042 18.644922 21.831944 L 19.278125 16.814931 M 10.355859 2.2 C 10.355859 2.2 1.071875 -1.595833 1.503906 7.032986 C 1.596094 8.869097 4.133984 20.932986 7.164062 17.282986 C 8.269922 15.95 9.269922 14.906944 9.269922 14.906944 M 15.369922 1.506944 C 15.05 1.606944 20.533984 -0.497917 23.651953 3.485069 C 24.751953 4.892014 23.476953 10.642014 20.423828 15.171875 " transform="matrix(10,0,0,11.25,0,0)"/>
<path style="fill:none;stroke-width:0.716;stroke-linecap:round;stroke-linejoin:bevel;stroke:rgb(100%,100%,100%);stroke-opacity:1;stroke-miterlimit:4;" d="M 20.425 15.170139 C 20.425 15.170139 20.625 16.15 23.525 15.552083 C 24.792188 15.289931 24.028906 16.286111 22.744922 16.881944 C 21.691016 17.371875 19.326953 17.496875 19.287891 16.821875 C 19.187891 15.077083 20.532031 15.606944 20.435156 15.170139 C 20.346875 14.776042 19.744922 14.389931 19.348828 13.426042 C 19.001953 12.586111 14.589063 6.136111 20.573047 7.093056 C 20.792969 7.047917 19.012891 1.393056 13.412891 1.311111 C 7.812891 1.229167 7.989844 8.195833 7.989844 8.195833 " transform="matrix(10,0,0,11.25,0,0)"/>
<path style="fill:none;stroke-width:0.716;stroke-linecap:butt;stroke-linejoin:round;stroke:rgb(100%,100%,100%);stroke-opacity:1;stroke-miterlimit:4;" d="M 11.246875 15.768056 C 10.467188 16.639931 10.696875 16.793056 9.137109 17.113889 C 7.558984 17.438889 8.487109 18.018056 9.091016 18.170139 C 9.825 18.354167 11.523047 18.613889 12.671094 17.006944 C 13.021094 16.517014 12.669141 15.737153 12.189063 15.538889 C 11.957031 15.443056 11.646875 15.322917 11.248828 15.769097 Z M 11.246875 15.768056 " transform="matrix(10,0,0,11.25,0,0)"/>
<path style="fill:none;stroke-width:0.716;stroke-linecap:round;stroke-linejoin:round;stroke:rgb(100%,100%,100%);stroke-opacity:1;stroke-miterlimit:4;" d="M 11.196094 15.753125 C 11.116016 15.239931 11.364063 14.630903 11.628906 13.917014 C 12.026953 12.846875 12.944922 11.777083 12.210938 8.379861 C 11.664062 5.85 7.991016 7.853125 7.991016 8.195833 C 7.991016 8.538889 8.157031 9.936111 7.930859 11.561111 C 7.633984 13.682986 9.280859 15.477083 11.176953 15.294097 " transform="matrix(10,0,0,11.25,0,0)"/>
<path style="fill-rule:nonzero;fill:rgb(100%,100%,100%);fill-opacity:1;stroke-width:0.239;stroke-linecap:butt;stroke-linejoin:miter;stroke:rgb(100%,100%,100%);stroke-opacity:1;stroke-miterlimit:4;" d="M 10.321875 8.145139 C 10.305078 8.262153 10.537109 8.575 10.837891 8.617014 C 11.139063 8.659028 11.396094 8.414931 11.412891 8.296875 C 11.430078 8.179167 11.198047 8.051042 10.896875 8.009028 C 10.596094 7.967014 10.337109 8.029167 10.321875 8.145139 Z M 10.321875 8.145139 " transform="matrix(10,0,0,11.25,0,0)"/>
<path style="fill-rule:nonzero;fill:rgb(100%,100%,100%);fill-opacity:1;stroke-width:0.119;stroke-linecap:butt;stroke-linejoin:miter;stroke:rgb(100%,100%,100%);stroke-opacity:1;stroke-miterlimit:4;" d="M 19.485938 7.905903 C 19.501953 8.022917 19.271094 8.336111 18.969922 8.378125 C 18.669141 8.420139 18.410156 8.176042 18.394922 8.057986 C 18.380078 7.939931 18.610156 7.812153 18.910937 7.770139 C 19.212109 7.728125 19.471094 7.789931 19.485938 7.905903 Z M 19.485938 7.905903 " transform="matrix(10,0,0,11.25,0,0)"/>
<path style="fill:none;stroke-width:0.716;stroke-linecap:round;stroke-linejoin:round;stroke:rgb(100%,100%,100%);stroke-opacity:1;stroke-miterlimit:4;" d="M 20.562109 7.095139 C 20.612109 8.014931 20.364063 8.639931 20.332031 9.619097 C 20.285938 11.040972 21.010156 12.669097 19.919141 14.298958 " transform="matrix(10,0,0,11.25,0,0)"/>
</g>
</svg>
