<?xml version="1.0" encoding="UTF-8"?>
<svg xmlns="http://www.w3.org/2000/svg" xmlns:xlink="http://www.w3.org/1999/xlink" width="300px" height="300px" viewBox="0 0 300 300" version="1.1">
<g id="surface1">
<path style=" stroke:none;fill-rule:evenodd;fill:rgb(2.745098%,21.176471%,33.72549%);fill-opacity:1;" d="M 128.320312 4.046875 C 62.261719 14.433594 12.644531 65.179688 3.59375 131.628906 C -2.917969 179.394531 17.171875 231.128906 54.300781 262.214844 C 110.761719 309.496094 190.070312 309.375 245.945312 261.917969 C 276.84375 235.675781 295.089844 198.378906 297.324219 156.910156 L 297.988281 144.488281 L 296.566406 133.179688 C 294.71875 118.492188 290.730469 103.785156 284.992188 90.46875 L 280.382812 79.785156 L 272.617188 68.109375 L 264.84375 56.4375 L 243.5625 35.15625 L 231.890625 27.382812 C 213.15625 14.917969 194.082031 7.601562 171.09375 4.070312 L 159.960938 2.355469 L 148.828125 2.464844 C 142.703125 2.527344 133.476562 3.238281 128.320312 4.046875 M 123.773438 12.371094 C 67.359375 23.578125 23 68.226562 12.3125 124.542969 L 10.546875 133.855469 L 10.546875 166.144531 L 12.3125 175.457031 C 23.105469 232.351562 68.859375 277.839844 125.253906 287.730469 L 135.070312 289.453125 L 166.144531 289.453125 L 175.457031 287.6875 C 232.351562 276.894531 277.839844 231.140625 287.730469 174.746094 L 289.453125 164.929688 L 289.453125 133.855469 L 287.6875 124.542969 C 276.933594 67.855469 232.144531 23.066406 175.457031 12.3125 L 166.144531 10.546875 L 131.835938 10.765625 L 123.773438 12.371094 M 135.9375 25.824219 C 105.777344 29.421875 80.386719 42.246094 59.167969 64.589844 C 40 84.78125 28.878906 108.957031 25.773438 137.195312 L 24.445312 149.230469 L 25.222656 158.113281 C 26.96875 178.039062 33.046875 197.941406 41.875 212.640625 C 63.847656 249.226562 98.859375 270.890625 142.390625 274.828125 L 150.597656 275.570312 L 162.71875 274.238281 C 191.046875 271.121094 215.195312 260.023438 235.410156 240.832031 C 258.484375 218.921875 270.828125 193.761719 274.355469 161.445312 L 275.601562 150.039062 L 274.265625 137.65625 L 272.933594 125.265625 L 270.039062 115.273438 C 264.066406 94.664062 254.210938 78.3125 237.957031 62.03125 L 226.757812 50.820312 L 219.140625 45.871094 C 202.050781 34.757812 183.523438 28.078125 163.671875 25.863281 C 151.300781 24.484375 147.246094 24.476562 135.9375 25.824219 M 164.597656 76.011719 C 160.535156 78.492188 157.769531 82.3125 156.597656 87.054688 L 155.792969 90.324219 L 156.976562 94.726562 L 158.167969 99.132812 L 161.644531 102.46875 L 165.125 105.800781 L 177.324219 106.972656 L 184.835938 102.929688 L 187.339844 98.472656 L 189.84375 94.019531 L 189.835938 86.132812 L 187.503906 82.3125 C 186.226562 80.210938 183.460938 77.445312 181.359375 76.167969 L 177.539062 73.835938 L 168.164062 73.835938 L 164.597656 76.011719 M 166.492188 85.121094 C 165.15625 86.816406 164.0625 89.121094 164.0625 90.234375 C 164.0625 91.347656 165.15625 93.652344 166.492188 95.347656 L 168.921875 98.4375 L 176.953125 98.4375 L 181.640625 93.75 L 181.640625 87.128906 L 178.929688 84.578125 L 176.214844 82.03125 L 168.921875 82.03125 L 166.492188 85.121094 M 193.125 91.886719 L 192.59375 98.269531 L 189.339844 102.535156 C 187.546875 104.882812 184.824219 107.378906 183.277344 108.082031 C 181.734375 108.785156 180.46875 109.671875 180.46875 110.054688 C 180.46875 110.4375 183.5 112.648438 187.207031 114.96875 C 190.914062 117.289062 198.5 122.132812 204.0625 125.722656 L 214.179688 132.257812 L 214.3125 122.625 L 216.503906 119.613281 C 217.710938 117.957031 220.367188 115.8125 222.40625 114.84375 C 224.445312 113.875 225.996094 112.75 225.851562 112.332031 C 225.613281 111.671875 215.371094 103.085938 199.070312 89.890625 L 193.652344 85.507812 L 193.125 91.886719 M 130.941406 115.726562 L 110.195312 141.210938 L 117.5 141.878906 C 125.800781 142.636719 128.105469 143.652344 132.882812 148.671875 L 136.269531 152.238281 L 137.644531 157.644531 L 139.019531 163.058594 L 154.675781 138.65625 C 163.289062 125.234375 170.828125 113.605469 171.429688 112.804688 L 172.53125 111.355469 L 170.933594 110.851562 C 170.054688 110.578125 167.894531 110.039062 166.132812 109.652344 L 162.933594 108.953125 L 158.847656 104.863281 L 154.757812 100.769531 L 153.21875 95.503906 L 151.683594 90.238281 L 130.941406 115.726562 M 223.550781 117.851562 C 220.484375 119.515625 216.796875 124.941406 216.796875 127.792969 C 216.796875 128.53125 217.613281 130.859375 218.613281 132.960938 L 220.425781 136.785156 L 223.351562 138.117188 C 224.964844 138.855469 227.882812 139.453125 229.835938 139.453125 L 233.382812 139.453125 L 240.234375 132.601562 L 240.234375 129.054688 C 240.234375 127.101562 239.636719 124.183594 238.898438 122.570312 L 237.566406 119.644531 L 233.742188 117.832031 C 229.078125 115.617188 227.660156 115.617188 223.550781 117.851562 M 224.496094 123.714844 C 223.484375 124.730469 222.65625 126.828125 222.65625 128.378906 L 222.65625 131.195312 L 225.632812 133.144531 L 228.613281 135.097656 L 231.390625 133.828125 C 232.921875 133.132812 234.527344 131.453125 234.957031 130.089844 L 235.742188 127.621094 L 233.859375 124.746094 L 231.976562 121.875 L 229.160156 121.875 C 227.609375 121.875 225.511719 122.707031 224.496094 123.714844 M 215.625 147.070312 L 215.625 157.03125 L 220.3125 161.71875 L 236.875 161.71875 L 241.40625 159.292969 L 241.40625 136.902344 L 237.800781 139.933594 L 234.195312 142.96875 L 224.777344 142.96875 L 221.371094 140.957031 C 219.5 139.851562 217.96875 138.535156 217.96875 138.027344 C 217.96875 137.523438 217.441406 137.109375 216.796875 137.109375 L 215.625 137.109375 L 215.625 147.070312 M 109.007812 147.367188 L 104.933594 149.414062 L 102.269531 153.398438 L 99.609375 157.378906 L 99.613281 162.773438 L 99.617188 168.164062 L 101.949219 171.984375 C 103.226562 174.085938 105.992188 176.851562 108.09375 178.128906 L 111.914062 180.460938 L 116.621094 180.464844 L 121.324219 180.46875 L 125.378906 178.296875 L 129.433594 176.117188 L 132.191406 170.972656 L 134.945312 165.820312 L 134.355469 161.234375 C 133.667969 155.871094 130.804688 151.628906 125.402344 147.949219 L 121.527344 145.3125 L 117.304688 145.316406 C 114.984375 145.316406 111.25 146.242188 109.007812 147.367188 M 113.707031 155.019531 C 112.117188 155.824219 110.042969 157.847656 109.101562 159.527344 L 107.394531 162.570312 L 110.316406 169.617188 L 113.296875 170.976562 L 116.285156 172.339844 L 118.785156 171.578125 C 120.160156 171.160156 122.210938 170.007812 123.339844 169.015625 L 125.390625 167.214844 L 125.390625 159.636719 L 123.339844 157.261719 C 122.210938 155.957031 120.234375 154.59375 118.945312 154.226562 L 116.601562 153.570312 L 113.707031 155.019531 M 220.3125 164.863281 C 220.3125 165.308594 221.179688 168.757812 222.242188 172.542969 L 224.171875 179.414062 L 228.878906 179.0625 L 233.589844 178.710938 L 237.707031 164.0625 L 229.007812 164.0625 C 224.226562 164.0625 220.3125 164.425781 220.3125 164.863281 M 95.535156 172.410156 C 93.449219 178.046875 89.0625 191.589844 89.0625 192.390625 L 89.0625 193.359375 L 116.601562 193.359375 C 131.746094 193.359375 144.140625 193.1875 144.140625 192.976562 C 144.140625 192.621094 138.929688 176.988281 137.699219 173.671875 L 137.136719 172.152344 L 133.433594 176.371094 C 131.398438 178.691406 128.132812 181.414062 126.183594 182.421875 L 122.640625 184.257812 L 111.664062 184.257812 L 107.257812 182.160156 L 102.851562 180.074219 L 99.492188 175.433594 L 96.132812 170.796875 L 95.535156 172.410156 M 227.460938 187.792969 C 227.527344 191.175781 228 195.265625 228.515625 196.875 L 229.457031 199.804688 L 229.570312 196.160156 C 229.632812 194.15625 230.019531 190.066406 230.433594 187.078125 L 231.175781 181.640625 L 227.34375 181.640625 L 227.460938 187.792969 M 81.640625 197.65625 C 81.210938 198.085938 80.859375 199.929688 80.859375 201.757812 L 80.859375 205.078125 L 151.171875 205.078125 L 151.171875 196.875 L 116.796875 196.875 C 97.890625 196.875 82.070312 197.226562 81.640625 197.65625 M 74.0625 210 L 72.65625 211.40625 L 72.65625 223.828125 L 160.546875 223.828125 L 160.546875 211.40625 L 157.734375 208.59375 L 75.46875 208.59375 L 74.0625 210 "/>
</g>
</svg>
