<?xml version="1.0" encoding="UTF-8"?>
<svg xmlns="http://www.w3.org/2000/svg" xmlns:xlink="http://www.w3.org/1999/xlink" width="300px" height="300px" viewBox="0 0 300 300" version="1.1">
<g id="surface1">
<path style=" stroke:none;fill-rule:nonzero;fill:rgb(96.470588%,87.058824%,11.372549%);fill-opacity:1;" d="M 0 0 C 99 0 198 0 300 0 C 300 99 300 198 300 300 C 201 300 102 300 0 300 C 0 201 0 102 0 0 Z M 0 0 "/>
<path style=" stroke:none;fill-rule:nonzero;fill:rgb(0%,0%,0%);fill-opacity:1;" d="M 227.695312 136.152344 C 228.347656 136.15625 229 136.152344 229.652344 136.148438 C 241.523438 136.136719 252.273438 139.816406 260.796875 148.167969 C 262.742188 150.125 264.425781 152.191406 265.96875 154.476562 C 266.300781 154.964844 266.640625 155.449219 266.980469 155.929688 C 268.082031 157.535156 268.082031 157.535156 268.359375 158.203125 C 268.019531 159.125 267.640625 159.554688 266.800781 160.039062 C 266.597656 160.160156 266.398438 160.277344 266.191406 160.398438 C 265.96875 160.527344 265.75 160.652344 265.519531 160.785156 C 263.398438 162.042969 261.320312 163.347656 259.257812 164.703125 C 256.773438 166.335938 254.277344 167.953125 251.769531 169.554688 C 251.304688 169.855469 251.304688 169.855469 250.828125 170.160156 C 249.175781 171.214844 249.175781 171.214844 248.4375 171.679688 C 248.175781 171.847656 247.917969 172.015625 247.648438 172.1875 C 246.972656 172.558594 246.972656 172.558594 246.355469 172.414062 C 245.644531 171.847656 245.289062 171.253906 244.832031 170.472656 C 244.019531 169.136719 243.148438 167.996094 242.074219 166.863281 C 241.699219 166.40625 241.699219 166.40625 241.699219 165.820312 C 241.53125 165.742188 241.359375 165.667969 241.1875 165.589844 C 240.488281 165.214844 239.957031 164.777344 239.355469 164.265625 C 235.214844 160.992188 230.058594 160.757812 225 161.132812 C 221.601562 161.738281 218.804688 163.617188 216.796875 166.40625 C 214.851562 169.710938 214.792969 173.777344 215.566406 177.492188 C 217.730469 183.152344 223.828125 186.074219 229.019531 188.429688 C 230.195312 188.953125 231.375 189.464844 232.5625 189.96875 C 233.316406 190.292969 234.066406 190.617188 234.820312 190.941406 C 235.804688 191.367188 236.789062 191.792969 237.769531 192.214844 C 239.949219 193.15625 242.113281 194.117188 244.269531 195.109375 C 244.726562 195.320312 245.1875 195.53125 245.648438 195.738281 C 257.898438 201.292969 269.472656 209.074219 274.511719 222.070312 C 276.105469 226.667969 276.667969 231.234375 276.65625 236.078125 C 276.652344 236.824219 276.660156 237.570312 276.667969 238.316406 C 276.679688 241.320312 276.410156 244.054688 275.683594 246.972656 C 275.625 247.214844 275.570312 247.457031 275.511719 247.703125 C 273.230469 257.039062 267.113281 264.589844 258.984375 269.53125 C 255.824219 271.4375 252.515625 272.757812 249.023438 273.925781 C 248.6875 274.039062 248.351562 274.15625 248.003906 274.273438 C 245.832031 274.953125 243.628906 275.355469 241.386719 275.738281 C 241.101562 275.789062 240.8125 275.835938 240.515625 275.886719 C 228.59375 277.8125 215.625 276.644531 204.492188 271.875 C 204.167969 271.738281 204.167969 271.738281 203.839844 271.597656 C 198.90625 269.46875 194.464844 266.636719 190.429688 263.085938 C 190.136719 262.832031 189.847656 262.582031 189.546875 262.320312 C 187.574219 260.582031 185.878906 258.734375 184.277344 256.640625 C 184.0625 256.367188 183.84375 256.09375 183.621094 255.8125 C 182.367188 254.195312 181.234375 252.53125 180.175781 250.78125 C 180.0625 250.59375 179.949219 250.410156 179.832031 250.21875 C 179.3125 249.335938 178.929688 248.554688 178.710938 247.558594 C 183.082031 244.960938 187.472656 242.40625 191.878906 239.871094 C 192.960938 239.246094 194.042969 238.617188 195.125 237.992188 C 197.253906 236.753906 199.386719 235.53125 201.5625 234.375 C 201.65625 234.511719 201.746094 234.644531 201.84375 234.785156 C 203.527344 237.238281 205.1875 239.617188 207.261719 241.761719 C 207.714844 242.285156 207.714844 242.285156 207.714844 242.871094 C 207.882812 242.941406 208.046875 243.015625 208.21875 243.089844 C 209 243.519531 209.53125 244.042969 210.167969 244.664062 C 216.515625 250.472656 224.679688 251.433594 232.910156 251.074219 C 237.570312 250.679688 242.546875 248.914062 245.636719 245.269531 C 248 242.09375 248.488281 238.527344 248.144531 234.667969 C 247.351562 230.820312 244.828125 228.082031 241.699219 225.878906 C 236.484375 222.476562 230.558594 220.121094 224.851562 217.675781 C 211.234375 211.839844 196.210938 205.003906 190.136719 190.429688 C 188.097656 185.292969 187 180.070312 187.070312 174.546875 C 187.078125 173.820312 187.078125 173.09375 187.074219 172.367188 C 187.082031 164.097656 189.816406 156.375 195.117188 150 C 195.339844 149.730469 195.5625 149.460938 195.789062 149.183594 C 203.675781 140.046875 215.921875 136.085938 227.695312 136.152344 Z M 227.695312 136.152344 "/>
<path style=" stroke:none;fill-rule:nonzero;fill:rgb(0.392157%,0.392157%,0%);fill-opacity:1;" d="M 135.058594 137.695312 C 144.4375 137.695312 153.8125 137.695312 163.476562 137.695312 C 163.503906 150.394531 163.523438 163.09375 163.535156 175.792969 C 163.539062 177.296875 163.539062 178.800781 163.539062 180.304688 C 163.542969 180.601562 163.542969 180.902344 163.542969 181.210938 C 163.546875 186.039062 163.554688 190.867188 163.566406 195.699219 C 163.578125 200.660156 163.585938 205.625 163.585938 210.589844 C 163.589844 213.648438 163.59375 216.707031 163.601562 219.761719 C 163.609375 221.867188 163.609375 223.96875 163.609375 226.074219 C 163.609375 227.28125 163.609375 228.492188 163.617188 229.699219 C 163.652344 236.777344 163.535156 244.035156 161.132812 250.78125 C 161.011719 251.148438 160.886719 251.511719 160.761719 251.890625 C 159.308594 256.082031 157.367188 260.054688 154.394531 263.378906 C 154.191406 263.621094 153.984375 263.863281 153.777344 264.113281 C 147.367188 271.558594 137.378906 275.503906 127.734375 276.269531 C 126.773438 276.308594 125.816406 276.316406 124.855469 276.320312 C 124.59375 276.320312 124.328125 276.320312 124.054688 276.320312 C 123.5 276.324219 122.945312 276.324219 122.386719 276.324219 C 121.554688 276.324219 120.71875 276.328125 119.882812 276.335938 C 115.597656 276.347656 111.46875 276.101562 107.316406 274.933594 C 107.050781 274.859375 106.78125 274.78125 106.503906 274.703125 C 100.019531 272.8125 94.308594 269.722656 89.355469 265.136719 C 89.195312 264.992188 89.039062 264.84375 88.875 264.695312 C 85.25 261.328125 82.550781 257.542969 80.207031 253.203125 C 79.703125 252.242188 79.703125 252.242188 79.101562 251.367188 C 79.101562 251.078125 79.101562 250.789062 79.101562 250.488281 C 79.644531 250.0625 79.644531 250.0625 80.414062 249.617188 C 80.847656 249.363281 80.847656 249.363281 81.289062 249.101562 C 81.605469 248.917969 81.921875 248.734375 82.25 248.546875 C 82.753906 248.253906 83.253906 247.957031 83.753906 247.664062 C 84.105469 247.457031 84.457031 247.25 84.808594 247.042969 C 86.566406 246.015625 88.308594 244.957031 90.050781 243.898438 C 90.5625 243.585938 91.078125 243.273438 91.59375 242.960938 C 93.273438 241.945312 94.945312 240.917969 96.605469 239.867188 C 97.070312 239.574219 97.070312 239.574219 97.542969 239.277344 C 98.125 238.910156 98.707031 238.539062 99.285156 238.164062 C 99.542969 238.003906 99.800781 237.84375 100.066406 237.675781 C 100.292969 237.535156 100.515625 237.390625 100.746094 237.242188 C 101.367188 237.011719 101.367188 237.011719 101.992188 237.199219 C 102.59375 237.636719 102.855469 237.988281 103.210938 238.640625 C 103.328125 238.847656 103.445312 239.058594 103.566406 239.269531 C 103.683594 239.492188 103.804688 239.714844 103.929688 239.941406 C 105.070312 241.949219 106.257812 243.785156 107.8125 245.507812 C 108.019531 245.738281 108.226562 245.96875 108.441406 246.207031 C 111.519531 249.464844 115.167969 251.054688 119.636719 251.210938 C 123.738281 251.253906 127.742188 250.617188 130.957031 247.851562 C 134.25 244.246094 134.855469 239.582031 134.847656 234.898438 C 134.847656 234.476562 134.851562 234.054688 134.851562 233.636719 C 134.855469 232.484375 134.859375 231.335938 134.859375 230.1875 C 134.859375 228.945312 134.863281 227.703125 134.867188 226.460938 C 134.875 224.3125 134.878906 222.160156 134.882812 220.011719 C 134.886719 216.902344 134.894531 213.792969 134.902344 210.6875 C 134.914062 205.640625 134.925781 200.597656 134.933594 195.554688 C 134.945312 190.65625 134.953125 185.757812 134.964844 180.859375 C 134.964844 180.558594 134.96875 180.253906 134.96875 179.945312 C 134.972656 178.429688 134.976562 176.914062 134.980469 175.398438 C 135.007812 162.828125 135.035156 150.261719 135.058594 137.695312 Z M 135.058594 137.695312 "/>
</g>
</svg>
