<?xml version="1.0" encoding="UTF-8"?>
<svg xmlns="http://www.w3.org/2000/svg" xmlns:xlink="http://www.w3.org/1999/xlink" width="300px" height="295px" viewBox="0 0 300 295" version="1.1">
<g id="surface1">
<path style=" stroke:none;fill-rule:nonzero;fill:rgb(14.117647%,53.72549%,79.215686%);fill-opacity:1;" d="M 8.574219 105.453125 C 8.574219 105.453125 1.472656 100.328125 9.992188 93.484375 L 29.847656 75.707031 C 29.847656 75.707031 35.53125 69.71875 41.539062 74.933594 L 224.757812 213.84375 L 224.757812 280.453125 C 224.757812 280.453125 224.671875 290.910156 211.265625 289.753906 Z M 8.574219 105.453125 "/>
<path style=" stroke:none;fill-rule:nonzero;fill:rgb(6.27451%,43.921569%,70.196078%);fill-opacity:1;" d="M 55.800781 148.390625 L 8.574219 191.382812 C 8.574219 191.382812 3.722656 194.996094 8.574219 201.457031 L 30.5 221.429688 C 30.5 221.429688 35.707031 227.027344 43.402344 220.65625 L 93.46875 182.640625 Z M 55.800781 148.390625 "/>
<path style=" stroke:none;fill-rule:nonzero;fill:rgb(3.137255%,46.666667%,72.54902%);fill-opacity:1;" d="M 138.710938 148.746094 L 225.320312 82.519531 L 224.757812 16.265625 C 224.757812 16.265625 221.0625 1.808594 208.722656 9.332031 L 93.46875 114.375 Z M 138.710938 148.746094 "/>
<path style=" stroke:none;fill-rule:nonzero;fill:rgb(23.529412%,60%,83.137255%);fill-opacity:1;" d="M 211.265625 289.84375 C 216.296875 295 222.390625 293.3125 222.390625 293.3125 L 289.886719 260.007812 C 298.527344 254.109375 297.316406 246.792969 297.316406 246.792969 L 297.316406 47.914062 C 297.316406 39.171875 288.378906 36.148438 288.378906 36.148438 L 229.878906 7.910156 C 217.097656 0 208.722656 9.332031 208.722656 9.332031 C 208.722656 9.332031 219.492188 1.570312 224.757812 16.265625 L 224.757812 279.238281 C 224.757812 281.042969 224.375 282.820312 223.605469 284.421875 C 222.066406 287.53125 218.722656 290.4375 210.703125 289.222656 Z M 211.265625 289.84375 "/>
</g>
</svg>
